<svg xmlns="http://www.w3.org/2000/svg" width="24" height="24" viewBox="0 0 24 24"><defs><radialGradient id="a" cx="88.2%" cy="11.315%" fx="88.2%" fy="11.315%"><stop offset="0%" stop-color="#9699C7"/><stop offset="100%" stop-color="#9499C9" stop-opacity="0"/></radialGradient><radialGradient id="b" cx="8.171%" cy="-6.535%" r="63.588%" fx="8.171%" fy="-6.535%"><stop offset="0%" stop-color="#9699C7"/><stop offset="100%" stop-color="#9499C9" stop-opacity="0"/></radialGradient><linearGradient id="c" x1="50%" x2="50%" y1="0%" y2="100%"><stop offset="0%" stop-color="#A4C5F4"/><stop offset="100%" stop-color="#A7C7F2"/></linearGradient><radialGradient id="d" cx="88.2%" cy="9.456%" r="48.142%" fx="88.2%" fy="9.456%"><stop offset="0%" stop-color="#486DA8"/><stop offset="100%" stop-color="#486DA8" stop-opacity="0"/></radialGradient><radialGradient id="e" cx="14.445%" cy="0%" fx="14.445%" fy="0%"><stop offset="0%" stop-color="#486DA8"/><stop offset="100%" stop-color="#486DA8" stop-opacity="0"/></radialGradient><linearGradient id="f" x1="50%" x2="50%" y1="0%" y2="122.366%"><stop offset="0%" stop-color="#A4C5F4"/><stop offset="100%" stop-color="#A7C7F2"/></linearGradient></defs><g fill="none"><circle cx="7" cy="10" r="4" fill="url(#a)" opacity=".2"/><circle cx="17.5" cy="11.5" r="2.5" fill="url(#b)" opacity=".2"/><path fill="url(#c)" d="M7 14c-2.209 0-4-1.791-4-4s1.791-4 4-4c.417 0 .818.064 1.196.182.563-1.842 2.277-3.182 4.304-3.182 2.485 0 4.5 2.015 4.5 4.5 0 .235-.018.465-.053.69.328-.123.682-.19 1.053-.19 1.657 0 3 1.343 3 3s-1.343 3-3 3h-11z"/><circle cx="7" cy="10" r="4" fill="url(#d)" opacity=".344"/><circle cx="18" cy="11" r="3" fill="url(#e)" opacity=".2"/><circle cx="12.5" cy="7.5" r="4.5" fill="url(#f)"/><path fill="#66AFEB" fill-rule="nonzero" d="M8.109 16.463l-1.05 2.499c-.16.382.019.822.401.982.382.16.822-.019.982-.401l1.05-2.499c.16-.382-.019-.822-.401-.982-.382-.16-.822.019-.982.401zm5-1l-1.05 2.499c-.16.382.019.822.401.982.382.16.822-.019.982-.401l1.05-2.499c.16-.382-.019-.822-.401-.982-.382-.16-.822.019-.982.401z"/></g></svg>