<svg width="16" height="17" xmlns="http://www.w3.org/2000/svg"><path d="M8.52.01L4.08 1.05c-.57.2-.77.56-.59 1.05.18.5.56.68 1.12.56L8.52.01zM1.56 3.04c.14-.46.38-.66.72-.59.51.1.87 1.73.51 2.16L.04 8.08l1.52-5.04zM.52 8.91l2.4-3c.28-.42.54-.59.78-.5.23.08.4.25.48.5l1.26 5.35c.05.47-.07.76-.35.87-.28.1-.58.1-.9 0L.51 10.29c-.15-.1-.22-.32-.22-.65 0-.32.07-.57.22-.73zm10.9-2.47c.28.1.42.28.42.54 0 .27-.14.56-.42.85l-3.6 3.45c-.37.32-.7.47-.99.47-.29 0-.47-.23-.55-.69L5.2 6.23c-.21-.65-.18-1.09.1-1.31.28-.22.74-.22 1.37 0l4.76 1.52zM8.93.88C9.38.5 9.8.36 10.14.42s.62.34.8.85l1.18 3.1c.18.49.18.81 0 .98-.19.17-.51.17-.98 0L6.66 3.98c-.42-.14-.63-.34-.63-.61 0-.27.17-.53.53-.77L8.93.88zm2.97.27l1.62 4.24c.4.61.88.72 1.42.32.54-.4.34-1.05-.6-1.94L11.9 1.15zm2.53 11.55l-.39-4.28c0-.53.25-.95.73-1.26.72-.46 1.26-.77 1.17.2a42.4 42.4 0 0 1-1.5 5.33zM8.37 12l3.47-3.31c.23-.3.52-.46.85-.46.34 0 .51.34.51 1.02l.35 4.02c.05.3-.07.52-.35.7-.28.17-.73.21-1.36.13l-3.02-.64c-.55-.11-.83-.3-.83-.58 0-.28.12-.57.38-.87zM12 15.02l-4.62-.86c-.76-.07-1.1.27-1.04 1.04.06.77.4 1.05 1.04.83l4.63-1.01zM.65 11.41l4.03 1.95c.89.44 1.08.98.58 1.63-.5.64-1.1.47-1.78-.51L.65 11.4z" fill="#FFF"/></svg>