<svg width="245" height="211" xmlns="http://www.w3.org/2000/svg" xmlns:xlink="http://www.w3.org/1999/xlink"><defs><path id="a" d="M0 0h360v216H0z"/></defs><g transform="translate(-62 -1)" fill="none" fill-rule="evenodd"><mask id="b" fill="#fff"><use xlink:href="#a"/></mask><g mask="url(#b)"><path d="M269.26 10.435a6.4 6.4 0 0 0-7.012-4.512l-89.312 11.182-35.5 6.199a4.714 4.714 0 0 0-4.382 4.747c.3 29.138 3.675 97.68 22.184 104.402 19.529 7.088 125.401-19.212 131.392-29.295 5.258-8.854-11.576-73.263-17.37-92.723z" fill="#FC0" fill-rule="nonzero"/><g stroke="#18123D" stroke-width="2" stroke-linecap="round" stroke-linejoin="round"><path d="M179.614 64.836c-2.728-3.155-5.512.598-3.356 2.548 2.19 1.926 5.103-.583 3.356-2.548zM190.522 62.98c1.702 3.207 5.608.67 4.8-1.507-1.272-3.335-6.414-1.538-4.8 1.508zM182.404 69.95c4.17 2.072 7.384-.5 8.114-2.494"/></g><g stroke="#18113D" stroke-width="2" stroke-linecap="round" stroke-linejoin="round"><path d="M164.446 106.3c1.019.991 46.917-2.548 47.706-3.848.788-1.3-2.523-57.714-4.003-59.22-1.48-1.505-40.25 2.331-41.754 3.725-1.52 1.4-3.384 57.913-1.95 59.342zM218.726 45.277c9.204-.659 29.109-3.04 29.109-3.04M220.35 55.308c8.752-1.542 47.927-5.615 47.927-5.615M220.786 65.976c4.704-.654 14.044-1.325 14.044-1.325"/></g><g stroke-linecap="round" stroke-linejoin="round" stroke="#18123D" stroke-width="2"><path d="M63.05 32.125c.683-3.88 30.155-10.263 32.685-8.654 2.553 1.613 7.929 12.141 12.787 13.207 4.858 1.066 76.466-16.654 100.754-23.045 24.288-6.391 61.599-13.579 66.407-9.987 4.804 3.614 14.237 55.227 20.598 83.114 6.357 27.91 11.89 59.302 8.714 64.788-3.177 5.486-206.007 43.646-212.184 39.115-6.181-4.508-30.585-153.87-29.762-158.538z"/><path d="M66.31 57.023c41.05-5.574 101.114-22.981 138.03-30.169 36.916-7.187 74.547-16.457 74.547-16.457"/></g><g><path d="M151.765 79.361c-3.773-1.24-26.543 34.386-29.866 36.797-3.347 2.44-47.84-9.478-50.59-6.2-2.535 3.022 29.575 32.565 29.217 36.26-.357 3.696-35.406 40.188-33.058 43.987 2.348 3.8 54.112-20.543 57.721-19.681 3.61.862 36.911 43.728 41.42 41.109 4.513-2.567-8.59-55.106-6.6-58.97 1.992-3.866 40.328-25.228 41.028-28.3.7-3.07-43.453-2.715-46.082-5.548-2.597-2.756.583-38.214-3.19-39.454z" fill="#017BF2" fill-rule="nonzero"/><path d="M120.64 136.476c-8.445 2.204-3.617 14.005 9.819 15.892 13.436 1.887 18.292-8.72 14.866-11.98-3.652-3.45-7.995.464-13.686-.556-4.68-.847-6.958-4.443-10.999-3.356z" fill="#18133D" fill-rule="nonzero"/><path d="M121.014 153.012c3.71-7.863 12.672-12.521 22.106-.128 9.434 12.393-25.46 7.279-22.106.128z" fill="#017BF2" fill-rule="nonzero"/><path d="M120.64 136.476c-8.445 2.204-3.617 14.005 9.819 15.892 13.436 1.887 18.292-8.72 14.866-11.98-3.652-3.45-7.995.464-13.686-.556-4.68-.847-6.958-4.443-10.999-3.356zM114.886 133.236c3.568-4.998 8.927-3.87 12.274-.917M136.826 132.102c5.179-3.935 9.727-.118 11.387 3.296" stroke="#18123D" stroke-width="2" stroke-linecap="round" stroke-linejoin="round"/></g></g></g></svg>