<svg width="80" height="66" xmlns="http://www.w3.org/2000/svg" xmlns:xlink="http://www.w3.org/1999/xlink"><defs><rect id="a" width="80" height="80" rx="10"/></defs><g transform="translate(0 -5)" fill="none" fill-rule="evenodd"><mask id="b" fill="#fff"><use xlink:href="#a"/></mask><g mask="url(#b)"><g stroke-linecap="round" stroke-linejoin="round" stroke="#18123D" stroke-width="1.5"><path d="M1.123 18.952c.218-1.24 9.578-3.293 10.381-2.78.81.515 2.512 3.879 4.055 4.218 1.542.339 24.284-5.355 31.998-7.408 7.714-2.053 19.563-4.366 21.088-3.22 1.524 1.154 4.499 17.651 6.507 26.564 2.007 8.92 3.752 18.954 2.741 20.709-1.01 1.755-65.425 14.036-67.384 12.59-1.961-1.44-9.65-49.18-9.386-50.673z" fill="#FFF"/><path d="M2.148 26.911c13.035-1.799 32.113-7.388 43.837-9.7C57.708 14.898 69.66 11.92 69.66 11.92"/></g><path d="M72.615 6.83a2.518 2.518 0 0 0-2.76-1.806L34.7 9.5l-13.974 2.48c-.978.069-1.735.906-1.725 1.9.119 11.66 1.447 39.089 8.733 41.779 7.687 2.837 49.362-7.688 51.72-11.723 2.07-3.543-4.557-29.318-6.838-37.105z" fill="#FC0" fill-rule="nonzero"/><path d="M27.896 47.372c.522.514 23.882-1.186 24.28-1.854.398-.668-1.441-29.766-2.199-30.546-.758-.78-20.487 1.093-21.25 1.808-.77.717-1.565 29.851-.83 30.592zM55.577 17.681c3.343-.224 10.57-1.062 10.57-1.062M56.186 22.523c3.177-.55 17.404-1.973 17.404-1.973M56.365 27.597c1.708-.231 5.1-.46 5.1-.46" stroke="#18113D" stroke-width="1.5" stroke-linecap="round" stroke-linejoin="round"/><path d="M34.743 31.863c-3.453.902-1.48 5.727 4.014 6.498 5.493.77 7.48-3.567 6.08-4.9-1.494-1.41-3.27.19-5.597-.226-1.914-.346-2.845-1.817-4.497-1.372z" fill="#18133D" fill-rule="nonzero"/><path d="M35.171 38.714c1.54-3.263 5.26-5.197 9.17-.057 3.912 5.14-10.562 3.025-9.17.057z" fill="#FFCB00" fill-rule="nonzero"/><path d="M34.743 31.863c-3.453.902-1.48 5.727 4.014 6.498 5.493.77 7.48-3.567 6.08-4.9-1.494-1.41-3.27.19-5.597-.226-1.914-.346-2.845-1.817-4.497-1.372zM34.004 27.054c1.249-1.742 3.083-1.379 4.217-.377M41.805 27.073c1.85-1.38 3.528.029 4.156 1.27" stroke="#18123D" stroke-width="1.5" stroke-linecap="round" stroke-linejoin="round"/><path d="M22.719 35.418c-.892.032-3 9.404-3.52 10.178-.522.782-10.835 1.736-11.167 2.65-.307.842 8.727 4.612 8.932 5.427.205.814-4.434 11.334-3.649 11.958.786.625 9.881-8.62 10.71-8.72.828-.1 11.126 6.413 11.88 5.502.76-.901-6.002-11.058-5.875-12.037.128-.979 6.61-8.535 6.525-9.244-.085-.708-9.393 2.832-10.165 2.435-.758-.383-2.78-8.18-3.671-8.149z" fill="#017BF2" fill-rule="nonzero"/></g></g></svg>