<svg xmlns="http://www.w3.org/2000/svg" width="61" height="28"><path d="M5.97 16.35l-3.42 7.67H.06l3.75-8.2a5.34 5.34 0 0 1-2.13-1.98 6.66 6.66 0 0 1-.8-3.54c0-1.05.15-1.96.45-2.76A5.18 5.18 0 0 1 4.45 4.4 6.4 6.4 0 0 1 6.7 4h3.22v20.02H7.76v-7.67h-1.8zM7.76 5.82H6.61c-.43 0-.85.08-1.26.24-.4.16-.77.4-1.09.75-.32.35-.57.8-.77 1.38-.2.57-.3 1.27-.3 2.11 0 .8.1 1.47.27 2.02.18.54.42.98.73 1.31.3.34.67.58 1.1.72.41.14.86.2 1.32.2h1.15V5.83zm23.77 20.97h-1.96v-2.77h-6.05v2.77h-1.96v-4.56h.87c.32-.75.57-1.57.76-2.48.18-.9.33-1.84.43-2.8.1-.96.17-1.94.2-2.94s.04-1.96.04-2.9v-1.2h6.55v12.32h1.12v4.56zm9.5-3.72a5.33 5.33 0 0 1-3.48 1.15c-1.45 0-2.6-.57-3.44-1.7-.84-1.13-1.26-2.78-1.26-4.97 0-1.14.08-2.18.24-3.13a8.9 8.9 0 0 1 .75-2.48c.35-.7.8-1.25 1.33-1.64a3.63 3.63 0 0 1 3.53-.24c.49.24.9.61 1.23 1.14.34.52.6 1.2.79 2.03.18.83.28 1.84.28 3.03v1.2h-5.88c0 1.61.22 2.83.65 3.65.44.82 1.1 1.23 1.98 1.23.61 0 1.16-.1 1.64-.32a6.4 6.4 0 0 0 1.13-.63l.5 1.68zM20.3 9.9v14.11h-2.15v-6.33H14.9v6.33h-2.18V9.91h2.18v5.99h3.25v-6h2.15zm25.12 7.08v7.03h-2.18V9.91h2.18v6.52l3.39-6.52h2.21l-3.5 6.63 4 7.48h-2.38l-3.72-7.03zm11.23 7.23c-1.51 0-2.7-.6-3.56-1.81-.86-1.2-1.29-3.02-1.29-5.45 0-1.1.11-2.1.33-3 .21-.89.53-1.65.95-2.27.42-.63.94-1.11 1.57-1.46a4.42 4.42 0 0 1 2.17-.52c.63 0 1.14.07 1.54.21.39.14.74.31 1.06.52l-.3 2.07a4.7 4.7 0 0 0-1.06-.68c-.4-.2-.82-.3-1.27-.3-.79 0-1.43.44-1.93 1.32-.5.88-.76 2.21-.76 4 0 1.78.21 3.14.63 4.1.42.97 1.08 1.45 1.97 1.45.55 0 1.01-.1 1.4-.27.4-.18.72-.38.98-.6l.5 1.62a4.33 4.33 0 0 1-2.94 1.06zm-28.4-12.55h-2.43v.25c0 .75-.01 1.57-.04 2.45a38.63 38.63 0 0 1-.58 5.4c-.16.9-.4 1.71-.7 2.46h3.76V11.67zm8.85-.17c-.67 0-1.14.38-1.42 1.14-.28.75-.46 1.77-.54 3.04h3.62c0-.6-.03-1.16-.09-1.67a6.69 6.69 0 0 0-.26-1.33 2.05 2.05 0 0 0-.5-.87c-.22-.2-.49-.3-.8-.3z"/></svg>
