<svg xmlns="http://www.w3.org/2000/svg" width="61" height="28"><path d="M4.96 24.02v-7.17L.16 4h2.42l3.52 9.91 4.06-11.98h2.22l-5.21 15v7.09H4.96zm11.78-7.36h-.25a5.8 5.8 0 0 0-1.65.2 2.16 2.16 0 0 0-1.51 1.59c-.1.37-.14.78-.14 1.23 0 .82.13 1.47.4 1.96s.69.73 1.25.73a2 2 0 0 0 1.08-.32c.34-.22.62-.48.82-.8v-4.6zm2.16 4.17a18.67 18.67 0 0 0 .25 3.19H17.3a8.5 8.5 0 0 1-.2-1.12h-.13c-.32.4-.68.7-1.1.95-.4.24-.92.37-1.53.37a3.07 3.07 0 0 1-2.45-1.1c-.63-.72-.94-1.79-.94-3.19 0-.74.1-1.43.3-2.04a3.8 3.8 0 0 1 .97-1.56c.44-.42 1-.74 1.7-.98a8.02 8.02 0 0 1 2.52-.35h.3v-.84c0-.93-.15-1.6-.46-2.01-.3-.41-.77-.62-1.38-.62a3.2 3.2 0 0 0-1.54.38c-.47.25-.9.54-1.26.85l-.42-1.93c.31-.26.78-.51 1.38-.75a5.61 5.61 0 0 1 3.63-.14c.48.15.89.4 1.22.74.32.34.57.8.74 1.37.17.57.25 1.28.25 2.14v6.64zm4.9 3.19h-2.18V9.88h2.18v1.23h.14a3.25 3.25 0 0 1 1.04-.9c.24-.15.5-.26.8-.36.28-.1.6-.14.93-.14 1.89 0 2.83 1.07 2.83 3.2v11.11h-2.21V13.1c0-.54-.11-.91-.34-1.12-.22-.2-.55-.3-.98-.3a2 2 0 0 0-1.26.43c-.37.29-.69.6-.95.96v10.95zm12.18.2c-1.4 0-2.46-.57-3.2-1.71-.72-1.14-1.08-2.81-1.08-5.01 0-2.62.44-4.57 1.33-5.86a4.04 4.04 0 0 1 3.45-1.93 3.3 3.3 0 0 1 1.8.53V4h2.18v20.02h-1.62l-.17-1.12h-.14c-.32.4-.68.7-1.08.95-.4.24-.9.37-1.47.37zm2.3-12.04c-.23-.23-.47-.4-.72-.5a2.31 2.31 0 0 0-.94-.18c-.44 0-.83.16-1.16.47-.32.3-.6.71-.81 1.23-.21.51-.37 1.1-.48 1.76-.1.66-.15 1.36-.15 2.09 0 1.66.17 2.96.5 3.9.34.95.9 1.42 1.71 1.42.54 0 .97-.11 1.29-.34.32-.22.57-.47.76-.75v-9.1zm12.46 10.89a5.39 5.39 0 0 1-3.39 1.15c-1.46 0-2.6-.57-3.45-1.7-.84-1.13-1.26-2.78-1.26-4.97 0-1.14.08-2.18.24-3.13a8.9 8.9 0 0 1 .76-2.48 4.3 4.3 0 0 1 1.33-1.64 3.63 3.63 0 0 1 3.53-.24c.48.24.9.61 1.23 1.14.33.52.6 1.2.78 2.03.19.83.28 1.84.28 3.03v1.2h-5.88c0 1.61.22 2.83.66 3.65.44.82 1.1 1.23 1.97 1.23.62 0 1.15-.1 1.6-.32.45-.22.81-.43 1.1-.63l.5 1.68zM46.9 11.5c-.67 0-1.15.38-1.43 1.14-.28.75-.46 1.77-.53 3.04h3.61c0-.6-.03-1.16-.08-1.67a6.69 6.69 0 0 0-.27-1.33 2.05 2.05 0 0 0-.5-.87c-.22-.2-.48-.3-.8-.3zm13.38-1.6l-2.63 6.62 2.94 7.5h-2.27l-2.18-5.82-2.13 5.82h-2.15l2.94-7.3-2.66-6.81h2.26l1.82 5.12 1.94-5.12h2.12z"/></svg>
