<svg width="32" height="32" viewBox="0 0 32 32" xmlns="http://www.w3.org/2000/svg"><g fill="none" fill-rule="evenodd"><path d="M16 .138C24.76.138 31.862 7.24 31.862 16S24.76 31.862 16 31.862.138 24.76.138 16 7.24.138 16 .138" fill="#FFF"/><path d="M16 .448C7.425.448.448 7.425.448 16S7.425 31.552 16 31.552 31.552 24.575 31.552 16 24.575.448 16 .448M16 32C7.178 32 0 24.822 0 16S7.178 0 16 0s16 7.178 16 16-7.178 16-16 16" fill="#CBCBCB"/><path d="M26.302 9.07l-8.515 8.327V27.75c0 .188-.807.337-1.727.35-.882-.013-1.727-.162-1.727-.35V17.398L5.818 9.07c-.137-.137.298-.783.97-1.455.67-.67 1.33-1.106 1.454-.97l7.805 7.62 7.806-7.62c.137-.136.783.3 1.455.97.67.672 1.118 1.318.994 1.455" fill="#F00"/></g></svg>
